<svg viewBox="0 0 40 40" xmlns="http://www.w3.org/2000/svg" xmlns:xlink="http://www.w3.org/1999/xlink" class=" "><defs><filter id="icn-bank-fill-jt-a"><feColorMatrix in="SourceGraphic" values="0 0 0 0 1.000000 0 0 0 0 1.000000 0 0 0 0 1.000000 0 0 0 1.000000 0"></feColorMatrix></filter><path id="icn-bank-fill-jt-b" d="M0 .078h14.852v15.581H0z"></path></defs><g fill="none" fill-rule="evenodd"><path fill="#04ACEE" d="M0 0h40v40H0z"></path><g filter="url(#icn-bank-fill-jt-a)"><path d="M31.527 18.209c0-4.314-3.542-7.813-7.91-7.813a7.931 7.931 0 00-6.95 4.065c.234-.018.475-.03.716-.03 4.37 0 7.912 3.497 7.912 7.813 0 1.364-.35 2.64-.967 3.754 4.033-.355 7.2-3.706 7.2-7.789" fill="#1A97D4"></path><g transform="translate(9.5 14.383)"><mask id="icn-bank-fill-jt-c" fill="#fff"><use xlink:href="#icn-bank-fill-jt-b"></use></mask><path d="M13.604 12.71c-.085.064-.181.114-.276.166a5.004 5.004 0 01-1.703.54 4.848 4.848 0 01-3.948-1.281c-.46-.44-.826-.98-1.062-1.598-.71-1.867-.023-3.893 1.557-5.057-2.402.877-3.66 3.47-2.866 5.847-.063-.09-.12-.185-.178-.276-1.482-2.565-.625-5.834 1.92-7.302 2.436-1.4 5.529-.644 7.096 1.666-.012-.016-.02-.031-.029-.047-1.815-3.144-5.818-4.234-8.933-2.44a6.451 6.451 0 00-3.19 4.782 5.857 5.857 0 01-.228-1.626c0-3.071 2.353-5.606 5.403-6.006C3.143.448 0 3.783 0 7.85c0 4.31 3.542 7.809 7.906 7.809a7.918 7.918 0 006.946-4.08 4.55 4.55 0 01-1.248 1.132" fill="#1A97D4" mask="url(#icn-bank-fill-jt-c)"></path></g></g></g></svg>