<svg xmlns="http://www.w3.org/2000/svg" viewBox="0 0 40 40" class=" "><g fill="none" fill-rule="evenodd"><path fill="#E73E44" d="M0 0h40v40H0z"></path><path fill="#FEFEFE" d="M30.575 19.845c0 6.028-4.894 10.917-10.92 10.917-6.031 0-10.92-4.889-10.92-10.917 0-6.031 4.889-10.92 10.92-10.92 6.026 0 10.92 4.889 10.92 10.92"></path><path fill="#E73E44" d="M11.21 14.39c1.085-1.109 1.769-1.18 2.14-1.041.372.132.61.523.648 1.043.01.077.011.154.011.231 0 .836-.388 1.666-1.104 2.428.393-.058.78.002 1.125.206.364.215.836.67 1.043 1.62.095.43.068.921.044 1.174a4.329 4.329 0 01-.16.874c-.15.507-.443.954-.844 1.295-.302.253-.61.377-.938.51l-.459.201-.374.167-.386.173-.101.049c-.376.193-.8.413-1.246.23-.42-.17-.596-.626-.65-.815-.466-1.622-.601-3.452-.389-5.285.126-1.078.811-2.113.99-2.332zm.92.474c-.174-.071-.498.096-.842.43l-.071.077-.633.676a.971.971 0 00-.192.446c-.192 1.858-.017 3.846.495 5.74.031.082.046.11.093.136.045.022.088.003.088.003l.756-.37.02-.009c.59-.27 1.532-.935 1.25-2.311-.137-.659-.401-1.058-.79-1.193-.496-.171-1.114.135-1.52.476-.043.036-.092.046-.134.027a.121.121 0 01-.074-.124l-.02-.24c-.012-.133.076-.205.076-.205 1.157-1.087 1.71-2.095 1.68-3.083-.001-.182-.037-.413-.182-.476zm7.047-4.463a5.784 5.784 0 012.764.19c.1.033.446.185.659.913.066.303-.244.213-.244.213a4.364 4.364 0 00-2.32-.284c-1.038.156-1.9.658-2.427 1.416-.525.746-.696 1.71-.489 2.714.482 2.32 2.431 3.504 4.964 3.017.989-.195 1.777-.613 2.296-1.213.016-.02.096-.106.171-.106.106 0 .17.044.21.194.114.458.133.682.135.766v.04c0 .24-.06.583-.37.853-.696.6-1.593 1.023-2.68 1.259-1.84.386-3.563.12-4.856-.751-1.105-.745-1.815-1.886-2.064-3.292-.246-1.402.074-2.788.9-3.9.79-1.055 1.978-1.776 3.351-2.03z"></path></g></svg>