<svg viewBox="0 0 40 40" xmlns="http://www.w3.org/2000/svg" class=" "><g fill="none" fill-rule="evenodd"><path fill="#696255" d="M0 0h40v40H0z"></path><path d="M31.41 20.526l-.213-.134c-.722-.72-1.727-1.034-3.07-.955-1.118.069-2.006.511-2.683.925l-.001-.031c0-.351.04-.73.079-1.1.04-.374.08-.755.08-1.117 0-.368-.042-.717-.17-1.016a.197.197 0 00-.19-.123c-.363.008-1.068.256-1.239.406l-.093.204c-.007.4-.094 1.517-.183 1.653a5.597 5.597 0 01-.048.134c-.152 1.597-.155 3-.014 4.204.015.12.247.302.426.367.196.073.811-.092 1.165-.226l.134-.02c.112-.013.178-.107.172-.234l.008-.347c.257-1.04 1.293-2.28 2.517-2.467.692-.11 1.239.067 1.67.539.06.084.185.832-.271 1.692-.34.637-1.02 1.172-1.913 1.509-.846.32-1.778.45-2.927.41-.047-.03-1.076-.727-1.076-.727-.91-.64-2.042-1.436-3.07-1.826-.18-.068-.504-.337-.698-.497l-.106-.088c-.592-.475-1.719-1.225-2.624-1.829l-.488-.326.002-.103c.026-.028.594-.37.594-.37.796-.465 1.164-.693 1.243-.811-.016.018.106-.063.106-.063l1.973-1.116c1.894-1.042 4.041-2.223 5.168-3.39.002-.002.055-.178.055-.178l.024-.159c.075-.249.08-.441.018-.663-.018-.063-.076-.136-.153-.151-.88-.087-2.016.44-3.05 1.41-.232.22-.428.325-.635.438l-.159.089c-1.14.647-3.707 2.24-5.05 3.1.09-1.446.357-3.5.685-5.214l-.036-.204a70.46 70.46 0 01-.139-.26l-.105-.185-.03-.008c-.269-.136-.488-.08-.648-.039l-.27.098-.356.13a.196.196 0 00-.15.126c-.641 1.55-1.176 4.102-1.302 6.143a30.97 30.97 0 00-3.049-1.686l-.017-.008-.07-.016c-.207-.027-.463-.18-.71-.33a135.25 135.25 0 01-.486-.315l-.746-.477c.007.004-.196-.045-.196-.045-.32.055-.934.468-1.117.749a.21.21 0 00-.033.12c0 .058.017.119.033.176l.034.152.034.092c.357.366 1.258.976 2.142 1.451l1.025.543 1.567.857c0 .007.269.212.269.212l.185.106s.02.012.031.021c-.417.28-2.85 1.905-2.85 1.905l-1.5.993c-.142.097-.735.363-.865.415-.326.132-.57.335-.674.556l-.04.087.04.057.115.087c-.004 0 .155.1.155.1l.164.114c.004.002.157.023.157.023.263.011.654-.14 1.384-.458.67-.298 2.492-1.396 3.27-1.865l.333-.2c.137.01.29-.105.423-.207.157-.125.497-.333.704-.424l.234-.13-.002.09c.035 2.382.173 4.113.432 5.447l.005.024.025.054c.13.19.275.753.403 1.25l.298.995c.005.01.084.093.084.093.169.114.684.313 1.03.273l.086-.011.054-.121c.029-.15.04-.295.04-.455 0-.182-.014-.383-.03-.628l-.024-.359c-.109-1.662-.218-4.065-.218-5.66l.001-.128c.282.179 1.518.957 1.518.957 2.103 1.364 5.28 3.426 7.2 3.971.1.03.205.006.279-.064.002-.003.296-.19.296-.19l.053-.022c.111-.052.186-.238.199-.44 1.618-.081 3.875-.704 5.082-2.223a3.163 3.163 0 00.678-1.927c0-.505-.14-.942-.395-1.181" fill="#FFC62D"></path></g></svg>