<svg height="40" viewBox="0 0 40 40" width="40" xmlns="http://www.w3.org/2000/svg" xmlns:xlink="http://www.w3.org/1999/xlink"><mask id="a" fill="#fff"><path d="m0 6.65842977h29.0126768v-6.65840858h-29.0126768z" fill="#fff" fill-rule="evenodd"></path></mask><g fill="none" fill-rule="evenodd"><path d="m0 0h40v40h-40z" fill="#54565a"></path><g fill="#fff" transform="translate(5.5 17)"><path d="m15.4499591 4.67694219c1.7498631-.3877361 3.7572751-1.78814932 3.7572751-4.41972531h-3.8087708v.47878945h2.7806238c-.0147635 1.16165424-.8760618 2.91914634-3.0395854 3.52515618z"></path><path d="m20.0704468 6.65715827h1.0356347v-6.65720772h-1.0356347z" mask="url(#a)"></path><path d="m20.7521107 2.5257097h1.4320594v-.48076733h-1.4320594z" mask="url(#a)"></path><path d="m15.3984705 2.37503724h2.8592447v-.47829497h-2.8592447z" mask="url(#a)"></path><path d="m24.3518261 3.25837481c-.1317413 0-.2375581-.10574621-.2375581-.23784067v-2.28537548h4.2451063v-.47794178h-5.2724763v3.00412476c0 .26129274.2124107.47532815.4737034.47532815h4.8807138v-.47829498z" mask="url(#a)"></path><path d="m22.520905 5.75828018h6.4917718v-.47794179h-6.4917718z" mask="url(#a)"></path><path d="m12.7981874 6.65842977h.994523v-6.65056768h-.994523z" mask="url(#a)"></path><path d="m6.50084178 3.99849232v-.47829498h-2.74269075v-.77709689h-1.0319615v.77709689h-2.72616127v.47829498z" mask="url(#a)"></path><path d="m1.58272477 1.73087542h4.27265543v-1.61063414h-5.29889519v.47864817h4.27110138v.6520663h-4.27110138v1.13728388c0 .2617872.21325839.47667028.47617581.47667028h4.91243059v-.47546942h-4.12240681c-.13251829 0-.23995983-.10779474-.23995983-.2408075z" mask="url(#a)"></path><path d="m9.00841851 4.28670548c-.13301277 0-.2404543-.10744154-.2404543-.24045431v-3.31105012h1.81788819v-.47871881h-2.84688287v4.03184793c0 .26305871.21318775.47702348.47659965.47702348h2.20760222c.3354634 0 .6072107-.05877144.7828893-.16995683l-.0003532 2.06300469h.9953v-6.65056767h-.9949468v2.12975831h-1.24507865v.59188209h1.24507865v1.4089605c-.2432799.09592743-.4610592.14827074-.7828893.14827074z" mask="url(#a)"></path><path d="m3.78652662 4.30553777h-1.15247121c-.30551259 1.26337404-1.80298345 1.84903992-2.35255293 1.92935618l.28686397.42354994c.56150742-.06837831 1.84077518-.47582262 2.64188925-1.35011842.80061959.8742958 2.07995799 1.28174011 2.64181861 1.35011842l.28644013-.42354994c-.54949884-.08031626-2.04781736-.66598214-2.35198782-1.92935618" mask="url(#a)"></path></g></g></svg>