<svg height="40" viewBox="0 0 40 40" width="40" xmlns="http://www.w3.org/2000/svg"><g fill="none" fill-rule="evenodd"><path d="m0 0h40v40h-40z" fill="#672a0e"></path><g transform="translate(10.238605 7.668929)"><path d="m15.779767 2.76911771s-.8512614 1.12884354-2.4471771 1.93516035c-.4679225.23608957-1.5908089.35671456-2.9530825.42863802l1.1841695-3.31783243s.3191831-1.53200194-.7181621-1.4916861c-.3386533.01290107-1.40823608 2.05868809-2.73891062 4.89144032-2.83626144.07289104-5.7631709.0941778-5.99872806.51088233-.42547114.75245485 1.64921932 1.82743643 1.64921932 1.82743643s1.50973628-.1074014 3.38302217-.24544284c-2.61155651 5.73517021-5.72965667 13.13941631-6.46856566 14.58465851-.28949911.566357-.11969368 1.1691594.51867262 1.1691594.63836629 0 3.19183147-1.1288435 3.6307083-2.0561079.43887682-.9272643 2.51356728-7.7406414 2.51356728-7.7406414s5.35972345-1.9487065 4.98723665.3225267c-.2518355 1.5368399-5.98468398 5.6039019-5.46601137 6.2086395s5.43505067-3.3352489 7.06192717-6.0070603c1.2767325-2.0970687 1.2368347-3.4268464-.3191832-3.6687415-1.5560178-.24189501-5.18672613.524106-5.18672613.524106l1.25853915-3.52553967c1.59368148-.12127005 3.10341778-.24060494 3.92818698-.31801135 2.2875856-.21512533 3.3514231-.59119149 4.1493809-2.04256175.7979579-1.45137027-1.9680833-1.98902232-1.9680833-1.98902232" fill="#fff"></path><path d="m8.33194749 14.5145735s6.82253981 7.2165355 9.97447331 8.0228523c0 0 .3590811.5644217 0 .7256851-.359081.1612634-4.7970035.0261247-6.7427439-2.3383188-1.94542133-2.3647659-4.30897254-5.2007434-4.18927886-6.0473761.11969368-.8466326.95754945-.3628425.95754945-.3628425" fill="#6091c6"></path></g></g></svg>