<svg viewBox="0 0 40 40" xmlns="http://www.w3.org/2000/svg">
  <g fill="none" fill-rule="evenodd">
  <path d="m0 0h40v40h-40z" fill="#0273e9"></path><g fill="#fff" fill-rule="nonzero" transform="translate(12.486378 8.536457)"><path d="m11.6343625 23.4562774-9.98216258-6.4989385s-1.25206001-.7196111-1.53874295-2.0590487c-.40257043-1.8829737.92393624-3.4969511.92393624-3.4969511l12.95563599 8.4373481c.9994306.6515042 1.2721226 1.9840783.6298578 2.9893164-.6591596 1.0308443-2.015492 1.2589235-2.9885245.6282738z"></path><path d="m2.17857724 10.0072576s-1.52923964-.92393217-1.52923964-3.05874332c0-2.12847562 1.5284477-3.04000065 1.5284477-3.04000065l5.45806299-3.57192157c.99954427-.63440354 2.3234941-.34607341 2.96870921.64652625.6452151.99259965.3712719 2.31960099-.61426619 2.97555163l-4.59959806 2.99512395 7.83705625 5.10380101s1.4107123.8085726 1.6894758 2.1728244c.3877875 1.9033001-.9223482 3.4713449-.9223482 3.4713449z"></path><path d="m12.4513825 4.82531827c-.5126503 0-.8772076.16155613-1.2330534.3933311l-2.66409228 1.73514452 2.66409228 1.73514452c.3592776.23124701.7362419.39306712 1.2330534.39306712 1.1662059-.01298815 2.1047721-.96206537 2.1047721-2.12834363s-.9385662-2.11535549-2.1047721-2.12834363"></path><path d="m2.15217918 23.8013001c.51238636 0 .87694357-.1615561 1.23278943-.3933311l2.66435625-1.7351445-2.66435625-1.7351445c-.35927761-.2312471-.73597793-.3930672-1.23278943-.3930672-.76603217-.0085313-1.47755411.3952525-1.86305415 1.0572704-.38550004.662018-.38550004 1.4801285 0 2.1421465s1.09702198 1.0658018 1.86305415 1.0572704"></path></g><g transform="translate(4)"><path d="m10.6385569 36.5997236c.5123863 0 .8769435-.1618201 1.2327894-.3933311l2.6643562-1.7351445-2.6643562-1.7351446c-.3592776-.231247-.7359779-.3933311-1.2327894-.3933311-1.17552467 0-2.12847566.952951-2.12847566 2.1284757 0 1.1755246.95295099 2.1284756 2.12847566 2.1284756"></path><path d="m10.5979038 40.8664421c.5123864 0 .8772076-.1615561 1.2327895-.3933311l2.6643562-1.7351445-2.6643562-1.7351445c-.3590137-.231247-.735978-.3930672-1.2327895-.3930672-.76603212-.0085313-1.47755407.3952525-1.86305411 1.0572704-.38550004.662018-.38550004 1.4801285 0 2.1421465s1.09702199 1.0658018 1.86305411 1.0572704"></path><path d="m27.7331489 30.169948c0-.5123864-.1615561-.8772076-.3933311-1.2327895l-1.7351445-2.6643562-1.7351445 2.6643562c-.231247.3590137-.3930671.735978-.3930671 1.2327895-.0085314.7660321.3952524 1.4775541 1.0572704 1.8630541.6620179.3855001 1.4801284.3855001 2.1421464 0 .662018-.3855 1.0658018-1.097022 1.0572704-1.8630541"></path><path d="m31.9998674 30.2092811c0-.5126503-.1615561-.8772076-.3930671-1.2327894l-1.7354085-2.6643563-1.7348805 2.6643563c-.231511.3590136-.3933311.7359779-.3933311 1.2327894-.0085314.7660322.3952524 1.4775541 1.0572704 1.8630541.6620179.3855001 1.4801285.3855001 2.1421464 0 .662018-.3855 1.0658018-1.0970219 1.0572704-1.8630541"></path><path d="m21.3561694 4.26685109c-.5123863 0-.8772075.16182011-1.2327894.3933311l-2.6651482 1.73514452 2.6643563 1.7354085c.3592776.23124701.7359779.3933311 1.2327894.3933311 1.1755246 0 2.1284756-.952951 2.1284756-2.12847562 0-1.17552463-.952951-2.12847562-2.1284756-2.12847562"></path><path d="m21.3947106.00013257c-.5123864 0-.8772076.16155613-1.2327894.3933311l-2.6643563 1.73514452 2.6643563 1.73514451c.3590136.23124701.7359779.39306712 1.2327894.39306712.7660322.00853138 1.4775541-.39525243 1.8630542-1.05727039.3855-.66201797.3855-1.4801285 0-2.14214647-.3855001-.66201796-1.097022-1.06580177-1.8630542-1.05727039"></path><path d="m4.26685699 10.6504301c0 .5123863.16182011.8769436.3933311 1.2327894l1.73514452 2.6643563 1.7354085-2.6643563c.23124701-.3592776.3933311-.7362419.3933311-1.2327894 0-1.17552464-.95295099-2.12847564-2.12847562-2.12847564-1.17552462 0-2.12847562.952951-2.12847562 2.12847564"></path><path d="m.00013847 10.6121529c0 .5123864.16155613.8772075.3933311 1.2327894l1.73514452 2.6633003 1.73514452-2.6643562c.23124701-.3592776.39306712-.7359779.39306712-1.2327894.00833921-.76603291-.39562156-1.47745247-1.05773428-1.86278696s-1.48022155-.38513155-2.14214301.00053138c-.66192146.38566294-1.06552923 1.09728282-1.05680997 1.86331148">
  </path>
  </g>
  </g>
</svg>