<svg viewBox="0 0 40 40" xmlns="http://www.w3.org/2000/svg" class=" "><g fill="none" fill-rule="evenodd"><path fill="#46B035" d="M0 0h40v40H0z"></path><path d="M13.687 19.183a1.818 1.818 0 01-1.941-1.687 1.812 1.812 0 011.71-1.916 1.816 1.816 0 011.93 1.69 1.809 1.809 0 01-1.7 1.913m16.818-2.68c-1.181-1.182-3.137-.977-4.29.23-1.499 1.557-2.664 2.137-4.053 2.078-1.94-.083-2.896-1.564-3.893-3.434-1.034-1.955-2.624-3.042-4.607-3.042-3.118 0-4.99 2.496-4.99 5.279 0 4.282 3.048 6.843 5.157 7.924 1.753.9 3.702 1.277 5.436 1.32a15.911 15.911 0 01-.745 3.331h3.569c-.352-.955-.664-2.417-.758-3.444 5.226-.67 7.708-3.017 9.067-5.252.61-.979.935-1.996.932-2.91-.004-.8-.263-1.528-.825-2.08" fill="#FFF"></path></g></svg>