<svg 
viewBox="0 0 40 40" 
xmlns="http://www.w3.org/2000/svg" class=" ">
<g fill="none" fill-rule="evenodd">
<path fill="#F8B30F" d="M0 0h40v40H0z">
</path>
<path d="M28.68 10.258v4.25l-3.024 1.273.066.055a8.726 8.726 0 012.98 6.565c0 4.8-3.905 8.705-8.704 8.705-4.797 0-8.7-3.906-8.7-8.705a8.72 8.72 0 012.982-6.565l.065-.055-3.022-1.273v-4.25l5.25 2.238 2.868 5.44.039.074a4.414 4.414 0 00-3.902 4.39 4.428 4.428 0 004.42 4.425 4.429 4.429 0 004.42-4.424 4.415 4.415 0 00-3.903-4.39l2.91-5.515 5.255-2.238zm-4.773-.992L20 16.696l-3.905-7.43 3.905 1.964 3.908-1.964z" fill="#FFF">
</path>
</g>
</svg>