<svg viewBox="0 0 40 40" xmlns="http://www.w3.org/2000/svg" xmlns:xlink="http://www.w3.org/1999/xlink" class=" "><defs><path id="icn-bank-fill-carrot-a" d="M0 0h3.907v6.633H0z"></path><path id="icn-bank-fill-carrot-c" d="M0 0h6.81v7.794H0z"></path></defs><g fill="none" fill-rule="evenodd"><path fill="#FF4600" d="M0 0h40v40H0z"></path><path d="M29.176 21.859c-.14.273-.33.49-.567.65-.238.162-.5.242-.788.242-.364 0-.653-.116-.866-.347-.214-.23-.32-.542-.32-.934 0-.336.07-.639.21-.908.14-.27.329-.485.567-.646.238-.16.5-.241.787-.241.364 0 .653.115.866.346.214.231.32.543.32.935 0 .329-.07.63-.21.903m.376-3.044c-.363-.2-.783-.299-1.262-.299a2.893 2.893 0 00-2.108.887c-.27.28-.48.602-.633.967-.153.366-.23.762-.23 1.187 0 .465.102.874.304 1.226.203.353.487.628.853.828.365.2.784.299 1.256.299.412 0 .798-.078 1.157-.234.358-.157.674-.374.947-.654a3.044 3.044 0 00.867-2.154c0-.464-.101-.873-.304-1.225a2.16 2.16 0 00-.847-.828" fill="#FFF"></path><g transform="translate(31.163 17.277)"><mask id="icn-bank-fill-carrot-b" fill="#fff"><use xlink:href="#icn-bank-fill-carrot-a"></use></mask><path d="M2.655 4.96c-.056-.04-.092-.045-.145 0-.114.094-.262.209-.423.322-.067.047-.187.059-.257-.038-.051-.072-.03-.168.001-.346l.466-2.396H3.63a.08.08 0 00.08-.064l.196-.966a.08.08 0 00-.08-.096h-1.31l.25-1.28A.08.08 0 002.689 0H1.466a.08.08 0 00-.079.065l-.256 1.31H.277a.08.08 0 00-.079.065l-.196.966a.08.08 0 00.078.096h.841S.541 4.441.53 4.517c-.133.837-.35 1.8.711 2.073.275.07.6.048.915-.028.542-.13 1.026-.602 1.284-.832.066-.059.063-.146-.012-.201l-.772-.568z" fill="#FFF" mask="url(#icn-bank-fill-carrot-b)"></path></g><path d="M15.248 21.826c-.133.26-.31.465-.533.618-.223.153-.474.23-.753.23-.346 0-.62-.11-.823-.33-.202-.219-.304-.515-.304-.887 0-.319.067-.606.2-.862.166-.321.407-.561.72-.72.128-.066.27-.104.412-.116.427-.035.754.072.981.322.2.22.3.515.3.888 0 .312-.067.598-.2.857m1.827-3.148l-1.019-.003a.162.162 0 00-.158.128l-.161.74a1.566 1.566 0 00-.614-.763 1.787 1.787 0 00-.982-.264c-.365 0-.711.08-1.037.24-.325.159-.611.382-.857.667a3.326 3.326 0 00-.798 2.174c0 .465.082.87.245 1.216.162.346.394.615.693.808.299.192.648.289 1.046.289.326 0 .635-.077.928-.23.223-.116.413-.266.57-.448l-.088.404a.094.094 0 00.092.114h1.179c.118 0 .15-.03.173-.147l.93-4.785c.021-.11-.03-.14-.142-.14M21.414 18.693a1.348 1.348 0 00-.553-.107c-.286 0-.556.093-.812.279a2.03 2.03 0 00-.623.768l.133-.853a.09.09 0 00-.09-.105h-1.051c-.118 0-.15.026-.173.142l-.925 4.777c-.012.075.024.156.11.156l1.109-.001c.075 0 .14-.054.154-.128l.394-2.034c.106-.552.284-.976.533-1.271.25-.296.553-.444.912-.444.197 0 .374.032.532.095a.112.112 0 00.15-.079l.263-1.064a.114.114 0 00-.063-.131M25.328 18.693a1.348 1.348 0 00-.552-.107c-.286 0-.557.093-.813.279a2.03 2.03 0 00-.623.768l.133-.853a.09.09 0 00-.09-.105h-1.05c-.119 0-.151.026-.174.142l-.925 4.777c-.012.075.024.156.11.156l1.109-.001c.075 0 .14-.054.154-.128l.394-2.034c.106-.552.284-.976.533-1.271.25-.296.554-.444.913-.444.196 0 .373.032.531.095a.112.112 0 00.15-.079l.264-1.064a.114.114 0 00-.064-.131" fill="#FFF"></path><g transform="translate(4.93 16.116)"><mask id="icn-bank-fill-carrot-d" fill="#fff"><use xlink:href="#icn-bank-fill-carrot-c"></use></mask><path d="M6.57.839a1.04 1.04 0 01.082 1.219c-.063.1-.146.202-.249.303-.297.292-.542.527-.542.527-.087.087-.175.095-.285.013l-.821-.592c-.062-.06-.054-.127.034-.217.066-.067.55-.481.346-.691a.34.34 0 00-.142-.086c-.36-.114-.782-.07-1.14.028-.787.214-1.432.737-1.87 1.42-.242.376-.41.907-.412 1.423-.003.469.129.884.315 1.186.204.332.462.594.803.784.352.195.773.315 1.244.292a2.83 2.83 0 00.941-.203.187.187 0 01.18.021l.827.595c.063.046.06.123-.019.173-.08.05-.528.316-.675.382-.551.243-1.056.378-1.722.378a3.548 3.548 0 01-1.71-.42 3.22 3.22 0 01-1.29-1.25A3.465 3.465 0 010 4.326c0-.611.176-1.248.41-1.75A4.48 4.48 0 011.46 1.17C1.871.81 2.19.594 2.667.375A4.13 4.13 0 014.382 0c.36 0 .948.063 1.454.296.295.136.56.32.735.543" fill="#FFF" mask="url(#icn-bank-fill-carrot-d)"></path></g></g></svg>