<svg viewBox="0 0 40 40" xmlns="http://www.w3.org/2000/svg" xmlns:xlink="http://www.w3.org/1999/xlink" class=" "><defs><path id="icn-bank-fill-mois-a" d="M0 .247h17.586v17.585H0z"></path></defs><g fill="none" fill-rule="evenodd"><path fill="#003668" d="M0 0h39.999v40H0z"></path><g transform="translate(11.277 11.046)"><mask id="icn-bank-fill-mois-b" fill="#fff"><use xlink:href="#icn-bank-fill-mois-a"></use></mask><path d="M17.586 9.04A8.793 8.793 0 110 9.038a8.793 8.793 0 0117.586 0" fill="#FEFEFE" mask="url(#icn-bank-fill-mois-b)"></path></g><path d="M24.197 19.472c-1.399-.95-3.19-.563-4.13.866a2.917 2.917 0 01-2.426 1.343c-1.497 0-2.52-1.053-2.823-2.141-.005-.012-.006-.022-.01-.031l-.008-.037c-.12-.455-.15-.67-.15-1.154 0-2.602 2.672-5.5 6.516-5.5 3.94 0 6.193 2.998 6.776 4.665a8.297 8.297 0 00-7.88-5.691 8.293 8.293 0 00-8.291 8.293c0 4.094 2.953 7.598 7.05 7.598 3.266 0 5.462-1.83 6.468-4.356.552-1.381.162-3.003-1.092-3.855" fill="#003668"></path><path d="M27.993 17.644c-.486-1.626-2.755-4.826-6.827-4.826-3.844 0-6.516 2.898-6.516 5.5 0 .483.03.699.15 1.154a2.413 2.413 0 01-.076-.592c0-2.71 2.713-4.587 5.503-4.587a6.837 6.837 0 016.838 6.836 7.54 7.54 0 01-4.177 6.754v.002a8.295 8.295 0 005.468-7.8c0-.85-.113-1.598-.363-2.44" fill="#E5002D"></path></g></svg>