<svg viewBox="0 0 40 40" xmlns="http://www.w3.org/2000/svg" class=" "><g fill="none" fill-rule="evenodd"><path fill="#014DA2" d="M0 0h40v40H0z"></path><path d="M6.945 17.81s.876 1.658 1.753 1.936l.632-.633a4.286 4.286 0 01-1.787-3.726H6.344s.279 2.468-1.844 3.666l.633.737a4.6 4.6 0 001.812-1.98m5.441-1.072h-.965v-1.534h-1.107V19.9h1.107v-2.09h.965v-1.073zM5.882 24.31h5.536v-3.967H5.882v3.967zm1.149-2.952h3.185v1.898H7.031V21.36zm7.661-3.549s.876 1.658 1.752 1.936l.633-.633a4.29 4.29 0 01-1.784-3.726h-1.199s.275 2.468-1.847 3.666l.648.737a4.603 4.603 0 001.797-1.98m3.6 2.167h1.104v-4.751h-1.104v1.512h-1.43v1.072h1.43v2.167zm-1.848 0c-1.68 0-3.043 1.031-3.043 2.303s1.364 2.31 3.043 2.31c1.68 0 3.044-1.035 3.044-2.31 0-1.275-1.36-2.303-3.044-2.303m0 3.597c-1.043 0-1.897-.58-1.897-1.294 0-.715.844-1.29 1.897-1.29 1.054 0 1.898.578 1.898 1.29 0 .712-.844 1.294-1.898 1.294m14.166-6.909h1.334V15.64h-3.691v1.025h1.237s.316 4.233-1.797 5.662l.737.785a4.138 4.138 0 001.582-2.17s.832 1.711 1.521 2.17l.785-.785s-1.838-1.16-1.708-5.662m3.596-1.44v3.335h-.604v-3.334h-1.107v9.085h1.107v-4.688h.604v4.688h1.104v-9.085h-1.104zm-9.085.788h-1.803v-.857H22.18v.857h-1.717v.874h4.66v-.874zm2.762 2.547h-1.104v-3.334h-1.11v9.085h1.11v-4.688h1.104V18.56zm-4.565 2.622c1.016-.209 1.772-.977 1.772-1.898 0-1.082-1.038-1.958-2.319-1.958s-2.319.873-2.319 1.942c0 .905.725 1.661 1.712 1.898v.744h-1.848v.968h4.894v-.918h-1.898l.006-.778zm-1.78-1.898a1.25 1.25 0 012.467 0 1.25 1.25 0 01-2.468 0" fill="#FFF" fill-rule="nonzero"></path></g></svg>