<svg viewBox="0 0 40 40" xmlns="http://www.w3.org/2000/svg" class=" "><g fill="none" fill-rule="evenodd"><path fill="#E7ECEF" d="M0 0h40v40H0z"></path><path d="M15.068 18.658c.612 0 4.597 1.76 4.597 8.077 0 3.019-1.015 5.536-1.616 5.536-.264 0-.364-.264-.364-.772 0-1.119.394-2.107.394-4.493 0-4.608-1.898-6.468-2.748-7.514-.25-.31-.44-.51-.44-.693 0-.074.053-.141.177-.141m10.042.141c0 .182-.19.383-.44.693-.851 1.046-2.746 2.906-2.746 7.514 0 2.386.392 3.374.392 4.493 0 .508-.1.772-.364.772-.6 0-1.617-2.517-1.617-5.536 0-6.317 3.986-8.077 4.601-8.077.121 0 .174.067.174.141" fill="#0081C5"></path><path d="M18.547 19.923c0 .824.648 1.494 1.453 1.494.804 0 1.456-.67 1.456-1.494 0-.826-.652-1.494-1.456-1.494-.805 0-1.453.668-1.453 1.494" fill="#F7971D"></path><path d="M12.443 17.563c-.761-.344-1.331-1.034-1.423-1.703.562-.37 1.455-.4 2.218-.056.796.361.98.969.986 1.505-.404.352-.983.614-1.781.254m2.182-4.022c-.49-.75-.604-1.703-.3-2.361.723-.009 1.547.482 2.037 1.234.51.787.326 1.446.019 1.933-.57.082-1.247-.017-1.756-.806m1.13 3.984c-.602-.512-.94-1.287-.85-1.922.61-.191 1.43.016 2.034.527.631.538.643 1.139.507 1.63-.461.211-1.057.301-1.69-.235m1.846-1.926c-.26-.838-.112-1.767.35-2.308.686.184 1.33.87 1.59 1.71.272.879-.078 1.45-.498 1.827-.557-.074-1.169-.348-1.442-1.229m-3.177 6.13c-.602.119-1.236-.054-1.578-.416.18-.462.705-.86 1.307-.976.63-.123 1 .163 1.23.483-.093.383-.329.786-.96.908m-1.59-1.78c-.683-.073-1.308-.466-1.552-.968.346-.436 1.04-.69 1.725-.615.717.08 1.02.508 1.163.927-.229.38-.618.735-1.336.657m-.06-5.085c-.537-.456-.838-1.145-.76-1.709.544-.17 1.274.014 1.81.469.562.476.572 1.012.453 1.447-.412.19-.941.27-1.503-.207m3.661-3.614c-.218-.7-.094-1.475.29-1.925.573.155 1.11.726 1.328 1.425.227.735-.068 1.208-.416 1.524-.466-.062-.976-.29-1.202-1.024M7.438 29.402c0 .018.012.033.037.033.022 0 .062-.017.106-.033 2.15-.772 5.325-1.717 9.78-2.006.004-.04.031-.238.031-.39 0-.324-.038-.661-.048-.717-4.565.419-7.715 1.743-9.785 3.015-.084.052-.121.064-.121.098m18.34-12.093c.004-.536.19-1.144.986-1.505.76-.343 1.653-.315 2.217.056-.094.669-.66 1.36-1.42 1.703-.8.36-1.379.098-1.783-.254m-2.158-2.962c-.305-.487-.491-1.146.021-1.933.488-.752 1.31-1.243 2.036-1.234.304.658.19 1.61-.299 2.36-.512.79-1.188.89-1.758.807m-1.066 3.412c-.134-.49-.124-1.091.508-1.629.604-.51 1.424-.718 2.036-.527.09.635-.25 1.41-.854 1.922-.632.536-1.229.446-1.69.234m-1.599-.93c-.419-.378-.768-.95-.497-1.829.259-.839.905-1.525 1.591-1.709.463.54.61 1.47.35 2.308-.273.881-.882 1.155-1.444 1.23m3.662 3.99c.23-.319.598-.605 1.23-.482.603.116 1.125.514 1.306.976-.34.362-.973.535-1.576.415-.631-.122-.868-.525-.96-.908m1.213-1.528c.144-.419.446-.848 1.165-.927.685-.075 1.378.18 1.723.615-.244.502-.868.895-1.552.969-.718.078-1.107-.276-1.336-.657m-.105-4.22c-.121-.436-.11-.972.451-1.448.538-.455 1.267-.64 1.81-.469.079.564-.22 1.253-.759 1.71-.561.476-1.093.397-1.502.206m-3.362-2.797c-.348-.316-.64-.79-.415-1.524.217-.699.755-1.27 1.326-1.425.387.45.508 1.226.292 1.925-.229.733-.737.962-1.203 1.024m10.079 17.03c-2.07-1.272-5.22-2.596-9.784-3.015-.01.056-.05.393-.05.717 0 .152.026.35.032.39 4.455.29 7.629 1.234 9.78 2.006.044.016.085.033.106.033.024 0 .036-.015.036-.033 0-.034-.036-.046-.12-.098M20 13.01c-.592-.276-1.175-.786-1.175-1.85 0-1.016.48-1.992 1.175-2.43.695.438 1.174 1.414 1.174 2.43 0 1.064-.582 1.574-1.174 1.85" fill="#54B847"></path></g></svg>