<svg viewBox="0 0 40 40" xmlns="http://www.w3.org/2000/svg" class=" "><g fill="none" fill-rule="evenodd"><path fill="#004B85" d="M0 0h40v40H0z"></path><path d="M10.89 21.17c.024.14.186 1.09.365 2.172a16.478 16.478 0 01-1.641-.378l-.008-.003-1.193 1.121c.182.02.363.042.545.058.081.01.166.017.249.025l.289.029.292.026c.08.007.161.013.24.021.1.009.202.015.303.02l.224.02c.105.008.206.012.308.02l.213.013c.1.006.202.012.304.016l.043.004c.058 0 .112.006.17.009l.15.006.15.008.208.006c.101.007.199.008.3.013.066.002.135.006.203.006l.148.005.15.003.197.004c.1.003.197.003.295.005l.097.001.099.003h.767l.196-.004c.094 0 .186-.002.277-.005.066-.002.13-.002.195-.002.09-.004.182-.006.27-.008l.099-.003.098-.003.26-.008c.067-.005.133-.007.199-.01l.122-.004.12-.007h.012l.2-.009c.084-.006.164-.01.247-.014l.2-.012.24-.015.1-.008.1-.006.23-.019.205-.016.106-.01.105-.01c.078-.005.149-.01.217-.018l.209-.018.213-.023.2-.02c.073-.01.143-.015.217-.025l.189-.02.108-.014.11-.012.179-.023c.074-.01.148-.018.223-.029l.17-.023.227-.03.078-.012.077-.011.233-.035c.05-.009.097-.015.145-.023l.238-.037c.045-.009.089-.015.132-.021l.236-.04c.002-.002.004-.002.01-.002.04-.008.079-.014.118-.02l.25-.045c.036-.005.073-.013.11-.019.083-.017.167-.031.252-.048l.097-.018.259-.052c.029-.006.056-.01.082-.017.091-.018.178-.037.267-.056a.66.66 0 00.07-.013l.137-.029.137-.03.055-.012c.058-.015.114-.025.17-.04l.11-.022.021-.006.022-.004.285-.068a16.334 16.334 0 00.318-.077l.021-.008.148-.036.146-.04a30.263 30.263 0 001.962-.571 22.28 22.28 0 002.803-1.11c.007-.005.015-.007.019-.011l.07-.035a.672.672 0 00.06-.03c.007-.003.013-.005.017-.008.112-.055.213-.11.298-.159.004-.002.008-.002.01-.004l-.178 1.258-.014.099h-1.13l-.008.056c-.066.46-.516 3.583-.588 4.096l-.007.049h-1.565l.562-3.925c-.868.323-1.54.524-1.54.524s-.135.051-.407.138l-.13.914-.017.107h-1.985l-.147 1.034h2.187c-.037.276-.115.805-.156 1.098l-.015.11h-3.614c.031-.205.188-1.303.357-2.475-.22.035-.45.07-.69.103.075.244.085.517.035.82-.083.543-.345.993-.765 1.301-.477.354-1.122.5-1.774.402-.645-.09-1.253-.404-1.817-.914.13-.215.533-.869.726-1.183.304.3.684.662 1.162.747.2.034.491.066.696-.077a.463.463 0 00.19-.302c.005-.035.009-.068.009-.101 0-.184-.096-.344-.28-.478a57.55 57.55 0 01-2.493.16c.006.14-.002.289-.029.446-.082.542-.345.992-.763 1.3-.48.354-1.124.5-1.776.402-.642-.09-1.25-.404-1.817-.914.132-.215.533-.869.728-1.183.306.3.682.662 1.16.747.2.034.492.066.696-.077a.47.47 0 00.19-.302c.007-.035.007-.068.007-.101a.511.511 0 00-.074-.269 43.93 43.93 0 01-3.094-.058l.334 1.961.007.045h-1.478c-.03-.206-.164-1.228-.183-1.372l-.003-.018H8.61l-.561 1.34-.022.05H6.525c.244-.533 2.254-5.061 2.48-5.558l.016-.035h1.868zm2.516.189c.463-.351 1.122-.494 1.805-.395.552.1.924.267 1.307.584-.11.208-.412.79-.571 1.093-.333-.285-.637-.457-.901-.5-.211-.035-.404.004-.532.111a.462.462 0 00-.163.358c0 .3.308.477.438.552l.006.004.412.207c.184.08.34.174.475.279a41.539 41.539 0 01-2.758-.105l-.099-.007a1.557 1.557 0 01-.132-.655c0-.083.006-.17.016-.26.064-.53.306-.966.697-1.266zm4.375 0c.46-.351 1.12-.494 1.803-.395.553.1.924.267 1.306.584-.11.208-.411.79-.57 1.093-.333-.285-.635-.457-.902-.5-.209-.035-.4.004-.531.111a.454.454 0 00-.161.358c0 .3.306.477.438.552l.006.004.412.207c.094.041.181.087.262.135-.885.071-1.76.113-2.595.131a1.48 1.48 0 01-.182-.754c0-.083.007-.17.015-.26.066-.53.308-.966.699-1.266zm7.486-.188l-.174 1.208h-2.13l-.107.752c-.477.085-.963.155-1.453.217.155-1.079.29-2.032.312-2.177zm3.97.002c-1.216.59-2.529 1.025-3.616 1.33l.194-1.33z" fill="#FFF"></path><path d="M34.478 14.881c-.854 3.263-3.523 5.231-4.3 5.866l.083.11c1.895-1.083 5.12-3.112 6.018-6.834l-1.8.858z" fill="#F4822B"></path><path d="M15.687 14.354c-.064.449-.75 5.251-.802 5.593h-1.54c.065-.45.754-5.252.801-5.593zm14.617 0c-.043.312-.138.961-.173 1.207H28l-.145 1.018h1.985c-.044.305-.128.886-.161 1.126h-1.987l-.147 1.034h2.188c-.046.315-.137.962-.172 1.208H25.95c.064-.45.755-5.252.802-5.593zm-21.145 0l.439 3.202s1.29-2.946 1.39-3.202h1.936c.005.393-.256 5.196-.252 5.593h-1.396l.232-3.916s-1.571 3.665-1.675 3.916H8.73l-.495-3.916c-.035.177-.558 2.793-.845 3.916H6.003c.144-.5 1.207-5.306 1.29-5.593h1.866zm15.55 0c.058.327.865 5.13.946 5.593h-1.477c-.035-.222-.134-1.134-.134-1.134l-1.741.003s-.379.942-.46 1.13h-1.498c.252-.55 2.386-5.356 2.493-5.592zm-6.012 0c.471 0 1.108.09 1.48.52.203.234.306.55.306.946 0 .118-.01.246-.029.378-.134 1.063-.67 1.265-1.354 1.392l1.131 2.357h-1.495l-1.161-2.718a514.454 514.454 0 01-.39 2.718h-1.401c.064-.45.752-5.252.804-5.593zm4.913 1.23l-.885 2.076h1.172l-.287-2.076zm-5.43-.18h-.345l-.21 1.47h.493c.24-.006.41-.078.48-.114l.035-.02c.281-.134.327-.563.327-.563.033-.237-.007-.426-.122-.56-.164-.188-.426-.213-.658-.213z" fill="#FFF"></path></g></svg>