<svg viewBox="0 0 40 40" xmlns="http://www.w3.org/2000/svg" class=" "><g fill="none" fill-rule="evenodd"><path fill="#007C6C" d="M0 0h40v40H0z"></path><g fill="#FFF"><path d="M23.815 23.009a3.97 3.97 0 00-.281-.958c-.424-.914-1.012-1.68-1.897-2.197a4.263 4.263 0 00-4.395.028 3.86 3.86 0 00-1.448 1.55c-.11.218-.2.446-.273.68-.359 1.138-.345 2.67.3 3.708.211.34.515.63.887.775.374.143.815.128 1.15-.09.434-.279.51-.813.43-1.287-.102-.604-.18-1.2.042-1.792.073-.19.173-.372.318-.513.09-.084.193-.154.305-.207.234-.115.501-.166.758-.123.452.073.819.421 1.02.832.199.409.253.873.275 1.328.094 1.984-.38 4.04-.885 5.945-.052.197-.106.392-.161.587-.045.151-.12.342-.025.49a.383.383 0 00.176.135c.295.118.535-.061.732-.26 1.164-1.17 1.909-2.68 2.42-4.233.19-.579.353-1.17.463-1.77.15-.823.236-1.762.089-2.628M32.143 13.838c0-.298-.263-.494-.547-.485-.287.011-.554.157-.817.26-5.118 1.944-10.889 2.312-16.282 1.536-.923-.133-1.857-.319-2.785-.464-.579-.09-1.154-.222-1.739-.265-.498-.039-1.12-.056-1.524.29-.531.46-.494 1.33-.192 1.906.362.69.996 1.208 1.656 1.602.641.382 1.407.79 2.171.741a94.87 94.87 0 006.165-.596c3.493-.454 7.156-.882 10.437-2.237 1.073-.444 2.131-.996 3.05-1.71.168-.127.407-.336.407-.578"></path><path d="M17.467 12.084a2.014 2.014 0 004.026 0c0-.165-.038-.331-.11-.481-.171-.366-.365-.545-.345-.982.025-.592-.733-.6-1.142-.6-.444 0-.918.062-1.319.264-.32.162-.595.41-.79.711a2.003 2.003 0 00-.32 1.042v.046"></path></g></g></svg>